<?xml version="1.0" encoding="UTF-8"?>
<!-- Generated by Pixelmator Pro 3.3.2 -->
<svg width="800" height="600" viewBox="0 0 800 600" xmlns="http://www.w3.org/2000/svg" xmlns:xlink="http://www.w3.org/1999/xlink">
    <g id="Notes">
        <path id="Path" fill="#ffffff" stroke="none" d="M 0 0 L 800 0 L 800 600 L 0 600 Z"/>
        <g id="Group">
            <text id="Small" xml:space="preserve" x="18" y="176" font-family="Lucida Grande" font-size="13" fill="#000000">Small</text>
            <text id="Medium" xml:space="preserve" x="18" y="376" font-family="Lucida Grande" font-size="13" fill="#000000">Medium</text>
            <text id="Large" xml:space="preserve" x="18" y="576" font-family="Lucida Grande" font-size="13" fill="#000000">Large</text>
        </g>
        <g id="g1">
            <text id="Ultralight" xml:space="preserve" x="250" y="30" font-family="Lucida Grande" font-size="9" fill="#000000">Ultralight</text>
            <text id="Regular" xml:space="preserve" x="450" y="30" font-family="Lucida Grande" font-size="9" fill="#000000">Regular</text>
            <text id="Black" xml:space="preserve" x="650" y="30" font-family="Lucida Grande" font-size="9" fill="#000000">Black</text>
            <text id="template-version" xml:space="preserve" x="785" y="575" text-anchor="end" font-family="Lucida Grande" font-size="9" fill="#505050">Template v.3.0</text>
            <g id="g2">
                <text id="httpsgithubcomswhittySwiftDraw" xml:space="preserve" x="785" y="590" text-anchor="end" font-family="Lucida Grande" font-size="9" fill="#505050">https://github.com/swhitty/SwiftDraw</text>
            </g>
        </g>
    </g>
    <g id="Guides">
        <path id="Capline-S" fill="#000000" stroke="#27aae1" stroke-width="0.5" d="M 18 76 L 818 76"/>
        <path id="H-reference" fill="#000000" stroke="none" d="M 85 145.755005 L 87.684998 145.755005 L 113.369003 79.286987 L 114.052002 79.286987 L 114.052002 76 L 112.148003 76 L 85 145.755005 Z M 95.693001 121.536011 L 130.996002 121.536011 L 130.263 119.312988 L 96.473999 119.312988 L 95.693001 121.536011 Z M 139.149994 145.755005 L 141.787003 145.755005 L 114.638 76 L 113.466003 76 L 113.466003 79.286987 L 139.149994 145.755005 Z"/>
        <path id="Baseline-S" fill="#000000" stroke="#27aae1" stroke-width="0.5" d="M 18 146 L 818 146"/>
        <path id="left-margin-Ultralight-S" fill="#000000" stroke="#27aae1" stroke-width="0.5" d="M 221 56 L 221 166"/>
        <path id="right-margin-Ultralight-S" fill="#000000" stroke="#27aae1" stroke-width="0.5" d="M 309 56 L 309 166"/>
        <path id="left-margin-Regular-S" fill="#000000" stroke="#27aae1" stroke-width="0.5" d="M 421 56 L 421 166"/>
        <path id="right-margin-Regular-S" fill="#000000" stroke="#27aae1" stroke-width="0.5" d="M 509 56 L 509 166"/>
        <path id="left-margin-Black-S" fill="#000000" stroke="#27aae1" stroke-width="0.5" d="M 621 56 L 621 166"/>
        <path id="right-margin-Black-S" fill="#000000" stroke="#27aae1" stroke-width="0.5" d="M 709 56 L 709 166"/>
        <path id="Capline-M" fill="#000000" stroke="#27aae1" stroke-width="0.5" d="M 18 276 L 818 276"/>
        <path id="Baseline-M" fill="#000000" stroke="#27aae1" stroke-width="0.5" d="M 18 346 L 818 346"/>
        <path id="Capline-L" fill="#000000" stroke="#27aae1" stroke-width="0.5" d="M 18 476 L 818 476"/>
        <path id="Baseline-L" fill="#000000" stroke="#27aae1" stroke-width="0.5" d="M 18 546 L 818 546"/>
    </g>
    <g id="Symbols">
        <g id="Ultralight-S">
            <path id="path1" fill="#000000" stroke="none" d="M 238.785294 144.375183 L 238.478363 101.476288 L 238.476028 101.589935 C 238.477203 101.568848 238.480713 101.510254 238.485397 101.417725 C 238.495941 101.251404 238.51001 101.056915 238.528732 100.834351 C 238.583786 100.188904 238.666962 99.464966 238.784119 98.683594 C 239.114456 96.457886 239.642776 94.235687 240.400696 92.188049 C 240.985229 90.612488 241.68222 89.207947 242.496384 88.017731 C 243.433502 86.644836 244.565109 85.297668 245.851349 83.991516 C 247.281647 82.53894 248.822083 81.215271 250.361328 80.053284 C 250.899017 79.647949 251.395721 79.292969 251.838501 78.990723 C 251.990799 78.887634 252.124344 78.798584 252.236786 78.724792 C 252.300049 78.683838 252.33989 78.65918 252.353943 78.649902 L 252.4254 78.605347 L 252.494507 78.556152 C 252.490997 78.558533 252.498032 78.552673 252.515594 78.540894 C 252.553085 78.515137 252.599945 78.483521 252.656158 78.446045 C 252.828369 78.332336 253.035706 78.203552 253.275848 78.061829 C 253.978699 77.647095 254.792847 77.228943 255.700714 76.837646 C 258.748779 75.523254 262.045166 74.839172 265.414185 75.112122 C 268.500916 75.361694 271.752808 76.182861 274.980072 77.398743 C 276.370544 77.922363 277.661469 78.483521 278.814148 79.043396 C 279.213623 79.237915 279.566223 79.417114 279.867279 79.576416 C 279.970367 79.63147 280.058228 79.678406 280.130829 79.718201 C 280.170654 79.740479 280.195282 79.753296 280.202301 79.758057 L 280.162476 79.734558 C 280.171844 79.740479 280.201111 79.758057 280.250336 79.788513 C 280.339355 79.843567 280.445953 79.910339 280.56662 79.98877 C 280.92038 80.217224 281.318665 80.486694 281.748596 80.793579 C 282.983246 81.675598 284.216797 82.679504 285.360107 83.777161 C 286.713104 85.076294 287.842346 86.417603 288.675232 87.76825 C 289.299591 88.780334 289.867767 89.962341 290.374969 91.281342 C 291.068451 93.079498 291.61319 95.029938 292.020874 96.983887 C 292.164917 97.669159 292.279724 98.304047 292.369904 98.871033 C 292.40155 99.06665 292.426147 99.237671 292.447235 99.384125 C 292.457794 99.467285 292.464813 99.52002 292.467163 99.539948 L 292.449585 99.262299 L 292.909943 145.472778 L 297.295776 143.737946 L 286.229309 131.695618 L 284.257782 129.549561 L 282.412781 131.806915 L 273.191315 143.095947 L 277.088654 143.07724 L 267.557892 131.638214 L 265.572357 129.254395 L 263.640656 131.68158 L 254.417984 143.271698 L 258.345795 143.241241 L 248.816223 131.649933 L 247.004028 129.446503 L 245.036026 131.512878 L 234.429916 142.652039 L 238.785294 144.375183 Z M 233.734085 144.411499 L 233.77861 150.662231 L 238.089447 146.135864 L 248.694412 134.996704 L 244.9142 134.85849 L 254.443756 146.449768 L 256.427002 148.861725 L 258.371582 146.418121 L 267.594208 134.828033 L 263.676971 134.871368 L 273.206543 146.311523 L 275.166351 148.663757 L 277.103882 146.292786 L 286.325378 135.003754 L 282.51001 135.115021 L 293.576477 147.156128 L 298.027924 152 L 297.962341 145.422455 L 297.500763 99.211945 L 297.499603 99.071381 L 297.483215 98.933136 C 297.477356 98.883911 297.466827 98.803101 297.451599 98.690643 C 297.425812 98.512573 297.395355 98.307587 297.360199 98.079163 C 297.257111 97.433716 297.127075 96.719116 296.966614 95.949524 C 296.506226 93.748413 295.890076 91.544922 295.089996 89.465637 C 294.476135 87.872498 293.775635 86.412903 292.974396 85.11615 C 291.896667 83.368347 290.499176 81.708435 288.859161 80.132935 C 287.526093 78.853638 286.107483 77.698669 284.687714 76.684204 C 284.18869 76.328064 283.724792 76.012939 283.30426 75.74231 C 283.044189 75.57489 282.852051 75.456543 282.736084 75.38739 L 282.716187 75.375671 L 282.696259 75.365173 C 282.606079 75.31366 282.449097 75.226929 282.231201 75.112122 C 281.879791 74.925903 281.474457 74.719727 281.021118 74.499512 C 279.734924 73.875061 278.304596 73.251892 276.760651 72.670898 C 273.125702 71.300293 269.431 70.367859 265.820648 70.076172 C 261.548492 69.730591 257.454315 70.579895 253.70108 72.197571 C 252.589401 72.676758 251.588989 73.190979 250.710419 73.7099 C 250.396469 73.89502 250.118851 74.06842 249.877548 74.226563 C 249.7229 74.32843 249.608124 74.408081 249.536652 74.459656 L 249.677216 74.364807 C 249.63739 74.390503 249.570618 74.432678 249.481598 74.491272 C 249.339859 74.582642 249.177017 74.691589 248.995453 74.814575 C 248.485886 75.161316 247.922424 75.564331 247.316788 76.021179 C 245.592453 77.323792 243.868103 78.805603 242.251556 80.446777 C 240.764999 81.956848 239.441284 83.531189 238.32373 85.167664 C 237.261261 86.723328 236.382675 88.492188 235.663422 90.433228 C 234.771973 92.840515 234.165176 95.393066 233.786789 97.939758 C 233.654434 98.830048 233.55954 99.657104 233.495117 100.404449 C 233.472855 100.669189 233.455292 100.906982 233.442398 101.114319 C 233.435379 101.244354 233.430679 101.340424 233.428329 101.397827 L 233.425995 101.4552 L 233.425995 101.512604 L 233.734085 144.411499 Z"/>
            <path id="path2" fill="#000000" stroke="none" d="M 257.790558 102.422821 C 257.790558 99.453247 255.455872 97.0448 252.575333 97.0448 C 249.694794 97.0448 247.360138 99.453247 247.360138 102.422821 C 247.360138 105.393555 249.694794 107.800812 252.575333 107.800812 C 255.455872 107.800812 257.790558 105.393555 257.790558 102.422821 Z"/>
            <path id="path3" fill="#000000" stroke="none" d="M 283.865356 102.422821 C 283.865356 99.453247 281.494385 97.0448 278.569336 97.0448 C 275.644287 97.0448 273.272156 99.453247 273.272156 102.422821 C 273.272156 105.393555 275.644287 107.800812 278.569336 107.800812 C 281.494385 107.800812 283.865356 105.393555 283.865356 102.422821 Z"/>
        </g>
        <g id="Regular-S">
            <path id="path4" fill="#000000" stroke="none" d="M 438.785278 144.375183 L 438.478394 101.476288 L 438.476013 101.589935 C 438.477203 101.568848 438.480713 101.510254 438.485382 101.417725 C 438.495941 101.251404 438.509979 101.056915 438.528748 100.834351 C 438.583801 100.188904 438.666962 99.464966 438.784119 98.683594 C 439.114471 96.457886 439.642761 94.235687 440.400696 92.188049 C 440.985229 90.612488 441.68222 89.207947 442.496368 88.017731 C 443.433502 86.644836 444.565125 85.297668 445.851318 83.991516 C 447.281647 82.53894 448.822083 81.215271 450.361328 80.053284 C 450.899048 79.647949 451.395691 79.292969 451.838531 78.990723 C 451.990784 78.887634 452.124329 78.798584 452.236816 78.724792 C 452.300049 78.683838 452.339874 78.65918 452.353943 78.649902 L 452.425385 78.605347 L 452.494507 78.556152 C 452.490997 78.558533 452.498016 78.552673 452.515564 78.540894 C 452.55307 78.515137 452.599945 78.483521 452.656189 78.446045 C 452.828369 78.332336 453.035706 78.203552 453.275848 78.061829 C 453.978729 77.647095 454.792847 77.228943 455.700714 76.837646 C 458.748779 75.523254 462.045166 74.839172 465.414185 75.112122 C 468.500916 75.361694 471.752808 76.182861 474.980072 77.398743 C 476.370544 77.922363 477.661469 78.483521 478.814148 79.043396 C 479.213623 79.237915 479.566223 79.417114 479.867279 79.576416 C 479.970367 79.63147 480.058228 79.678406 480.130829 79.718201 C 480.170654 79.740479 480.195282 79.753296 480.202301 79.758057 L 480.162476 79.734558 C 480.171844 79.740479 480.201111 79.758057 480.250336 79.788513 C 480.339355 79.843567 480.445953 79.910339 480.56662 79.98877 C 480.92038 80.217224 481.318665 80.486694 481.748596 80.793579 C 482.983246 81.675598 484.216797 82.679504 485.360107 83.777161 C 486.713104 85.076294 487.842346 86.417603 488.675232 87.76825 C 489.299591 88.780334 489.867767 89.962341 490.374969 91.281342 C 491.068451 93.079498 491.61319 95.029938 492.020874 96.983887 C 492.164917 97.669159 492.279724 98.304047 492.369904 98.871033 C 492.40155 99.06665 492.426147 99.237671 492.447235 99.384125 C 492.457794 99.467285 492.464813 99.52002 492.467163 99.539948 L 492.449585 99.262299 L 492.909943 145.472778 L 497.295776 143.737946 L 486.229309 131.695618 L 484.257782 129.549561 L 482.412781 131.806915 L 473.191315 143.095947 L 477.088654 143.07724 L 467.557892 131.638214 L 465.572357 129.254395 L 463.640656 131.68158 L 454.417999 143.271698 L 458.345795 143.241241 L 448.816223 131.649933 L 447.004028 129.446503 L 445.036041 131.512878 L 434.429901 142.652039 L 438.785278 144.375183 Z M 433.73407 144.411499 L 433.778595 150.662231 L 438.089478 146.135864 L 448.694397 134.996704 L 444.914185 134.85849 L 454.443787 146.449768 L 456.427002 148.861725 L 458.371582 146.418121 L 467.594208 134.828033 L 463.676971 134.871368 L 473.206543 146.311523 L 475.166351 148.663757 L 477.103882 146.292786 L 486.325378 135.003754 L 482.51001 135.115021 L 493.576477 147.156128 L 498.027924 152 L 497.962341 145.422455 L 497.500763 99.211945 L 497.499603 99.071381 L 497.483215 98.933136 C 497.477356 98.883911 497.466827 98.803101 497.451599 98.690643 C 497.425812 98.512573 497.395355 98.307587 497.360199 98.079163 C 497.257111 97.433716 497.127075 96.719116 496.966614 95.949524 C 496.506226 93.748413 495.890076 91.544922 495.089996 89.465637 C 494.476135 87.872498 493.775635 86.412903 492.974396 85.11615 C 491.896667 83.368347 490.499176 81.708435 488.859161 80.132935 C 487.526093 78.853638 486.107483 77.698669 484.687714 76.684204 C 484.18869 76.328064 483.724792 76.012939 483.30426 75.74231 C 483.044189 75.57489 482.852051 75.456543 482.736084 75.38739 L 482.716187 75.375671 L 482.696259 75.365173 C 482.606079 75.31366 482.449097 75.226929 482.231201 75.112122 C 481.879791 74.925903 481.474457 74.719727 481.021118 74.499512 C 479.734924 73.875061 478.304596 73.251892 476.760651 72.670898 C 473.125702 71.300293 469.431 70.367859 465.820648 70.076172 C 461.548492 69.730591 457.454315 70.579895 453.70108 72.197571 C 452.589386 72.676758 451.588989 73.190979 450.710419 73.7099 C 450.396484 73.89502 450.118835 74.06842 449.877533 74.226563 C 449.722931 74.32843 449.608093 74.408081 449.536652 74.459656 L 449.677246 74.364807 C 449.637421 74.390503 449.570648 74.432678 449.481598 74.491272 C 449.339844 74.582642 449.177032 74.691589 448.995453 74.814575 C 448.48703 75.161316 447.922424 75.564331 447.316803 76.021179 C 445.592468 77.323792 443.868103 78.805603 442.251526 80.446777 C 440.765015 81.956848 439.441284 83.531189 438.32373 85.167664 C 437.261261 86.723328 436.38269 88.492188 435.663422 90.433228 C 434.771973 92.840515 434.165192 95.393066 433.786804 97.939758 C 433.654419 98.830048 433.55954 99.657104 433.495087 100.404449 C 433.47287 100.669189 433.455261 100.906982 433.442413 101.114319 C 433.435364 101.244354 433.430664 101.340424 433.428345 101.397827 L 433.425995 101.4552 L 433.425995 101.512604 L 433.73407 144.411499 Z"/>
            <path id="path5" fill="#000000" stroke="none" d="M 457.790558 102.422821 C 457.790558 99.453247 455.455872 97.0448 452.575348 97.0448 C 449.694794 97.0448 447.360168 99.453247 447.360168 102.422821 C 447.360168 105.393555 449.694794 107.800812 452.575348 107.800812 C 455.455872 107.800812 457.790558 105.393555 457.790558 102.422821 Z"/>
            <path id="path6" fill="#000000" stroke="none" d="M 483.865356 102.422821 C 483.865356 99.453247 481.494385 97.0448 478.569336 97.0448 C 475.644287 97.0448 473.272156 99.453247 473.272156 102.422821 C 473.272156 105.393555 475.644287 107.800812 478.569336 107.800812 C 481.494385 107.800812 483.865356 105.393555 483.865356 102.422821 Z"/>
        </g>
        <g id="Black-S">
            <path id="path7" fill="#000000" stroke="none" d="M 638.785278 144.375183 L 638.478394 101.476288 L 638.476013 101.589935 C 638.477173 101.568848 638.480713 101.510254 638.485413 101.417725 C 638.495972 101.251404 638.51001 101.056915 638.528687 100.834351 C 638.58374 100.188904 638.666992 99.464966 638.784119 98.683594 C 639.114441 96.457886 639.642761 94.235687 640.400696 92.188049 C 640.985229 90.612488 641.682251 89.207947 642.496399 88.017731 C 643.433472 86.644836 644.565125 85.297668 645.851379 83.991516 C 647.281677 82.53894 648.822021 81.215271 650.361328 80.053284 C 650.898987 79.647949 651.395691 79.292969 651.838501 78.990723 C 651.990784 78.887634 652.124329 78.798584 652.236816 78.724792 C 652.300049 78.683838 652.339905 78.65918 652.353943 78.649902 L 652.425415 78.605347 L 652.494507 78.556152 C 652.490967 78.558533 652.497986 78.552673 652.515564 78.540894 C 652.553101 78.515137 652.599915 78.483521 652.656128 78.446045 C 652.828369 78.332336 653.035706 78.203552 653.275818 78.061829 C 653.978699 77.647095 654.792847 77.228943 655.700684 76.837646 C 658.748779 75.523254 662.045166 74.839172 665.414124 75.112122 C 668.500854 75.361694 671.752747 76.182861 674.980042 77.398743 C 676.370544 77.922363 677.661438 78.483521 678.814148 79.043396 C 679.213623 79.237915 679.566223 79.417114 679.867249 79.576416 C 679.970337 79.63147 680.058228 79.678406 680.130859 79.718201 C 680.170715 79.740479 680.195313 79.753296 680.202271 79.758057 L 680.162476 79.734558 C 680.171814 79.740479 680.201172 79.758057 680.250366 79.788513 C 680.339355 79.843567 680.445984 79.910339 680.56665 79.98877 C 680.920349 80.217224 681.318665 80.486694 681.748596 80.793579 C 682.983276 81.675598 684.216797 82.679504 685.360107 83.777161 C 686.713074 85.076294 687.842407 86.417603 688.675293 87.76825 C 689.299622 88.780334 689.867737 89.962341 690.375 91.281342 C 691.068481 93.079498 691.61322 95.029938 692.020813 96.983887 C 692.164917 97.669159 692.279724 98.304047 692.369934 98.871033 C 692.40155 99.06665 692.426147 99.237671 692.447205 99.384125 C 692.457764 99.467285 692.464844 99.52002 692.467163 99.539948 L 692.449585 99.262299 L 692.909973 145.472778 L 697.295776 143.737946 L 686.229309 131.695618 L 684.257751 129.549561 L 682.412781 131.806915 L 673.191284 143.095947 L 677.088623 143.07724 L 667.557861 131.638214 L 665.572327 129.254395 L 663.640625 131.68158 L 654.41803 143.271698 L 658.345764 143.241241 L 648.816223 131.649933 L 647.004028 129.446503 L 645.036011 131.512878 L 634.429932 142.652039 L 638.785278 144.375183 Z M 633.734131 144.411499 L 633.778564 150.662231 L 638.089417 146.135864 L 648.694397 134.996704 L 644.914185 134.85849 L 654.443726 146.449768 L 656.426941 148.861725 L 658.371582 146.418121 L 667.594238 134.828033 L 663.676941 134.871368 L 673.206543 146.311523 L 675.166321 148.663757 L 677.103821 146.292786 L 686.325317 135.003754 L 682.510071 135.115021 L 693.576477 147.156128 L 698.027893 152 L 697.962341 145.422455 L 697.500793 99.211945 L 697.499573 99.071381 L 697.483215 98.933136 C 697.477356 98.883911 697.466797 98.803101 697.450378 98.690643 C 697.425781 98.512573 697.395325 98.307587 697.359009 98.079163 C 697.257141 97.433716 697.127075 96.719116 696.966614 95.949524 C 696.506287 93.748413 695.890076 91.544922 695.089966 89.465637 C 694.476135 87.872498 693.775574 86.412903 692.974365 85.11615 C 691.896667 83.368347 690.499146 81.708435 688.859192 80.132935 C 687.526062 78.853638 686.107483 77.698669 684.687683 76.684204 C 684.18866 76.328064 683.724792 76.012939 683.30426 75.74231 C 683.044189 75.57489 682.852112 75.456543 682.736145 75.38739 L 682.716187 75.375671 L 682.696289 75.365173 C 682.606079 75.31366 682.449097 75.226929 682.231201 75.112122 C 681.879761 74.925903 681.474487 74.719727 681.021179 74.499512 C 679.734924 73.875061 678.304565 73.251892 676.76062 72.670898 C 673.125671 71.300293 669.43103 70.367859 665.820679 70.076172 C 661.548462 69.730591 657.454346 70.579895 653.701111 72.197571 C 652.589355 72.676758 651.58905 73.190979 650.710449 73.7099 C 650.396484 73.89502 650.118896 74.06842 649.877502 74.226563 C 649.7229 74.32843 649.608093 74.408081 649.536682 74.459656 L 649.677246 74.364807 C 649.63739 74.390503 649.570618 74.432678 649.481628 74.491272 C 649.339844 74.582642 649.177002 74.691589 648.995422 74.814575 C 648.48584 75.161316 647.922424 75.564331 647.316772 76.021179 C 645.592468 77.323792 643.868164 78.805603 642.251587 80.446777 C 640.764954 81.956848 639.441223 83.531189 638.32373 85.167664 C 637.261292 86.723328 636.38269 88.492188 635.663452 90.433228 C 634.771973 92.840515 634.165161 95.393066 633.786804 97.939758 C 633.654419 98.830048 633.559509 99.657104 633.495117 100.404449 C 633.472839 100.669189 633.455261 100.906982 633.442383 101.114319 C 633.435364 101.244354 633.430664 101.340424 633.428284 101.397827 L 633.426025 101.4552 L 633.426025 101.512604 L 633.734131 144.411499 Z"/>
            <path id="path8" fill="#000000" stroke="none" d="M 657.790527 102.422821 C 657.790527 99.453247 655.455872 97.0448 652.575317 97.0448 C 649.694824 97.0448 647.360107 99.453247 647.360107 102.422821 C 647.360107 105.393555 649.694824 107.800812 652.575317 107.800812 C 655.455872 107.800812 657.790527 105.393555 657.790527 102.422821 Z"/>
            <path id="path9" fill="#000000" stroke="none" d="M 683.865356 102.422821 C 683.865356 99.453247 681.494385 97.0448 678.569336 97.0448 C 675.644287 97.0448 673.272095 99.453247 673.272095 102.422821 C 673.272095 105.393555 675.644287 107.800812 678.569336 107.800812 C 681.494385 107.800812 683.865356 105.393555 683.865356 102.422821 Z"/>
        </g>
    </g>
</svg>
